HIERARCHY
ROOT Hips
{
	OFFSET 0.000000 0.000000 0.000000
	CHANNELS 6 Xposition Yposition Zposition Zrotation Yrotation Xrotation 
	JOINT LowerBack
	{
		OFFSET 0.000000 0.000000 0.000000
		CHANNELS 3 Zrotation Yrotation Xrotation
		JOINT Spine
		{
			OFFSET 0.028270 2.035590 -0.193380
			CHANNELS 3 Zrotation Yrotation Xrotation
			JOINT Spine1
			{
				OFFSET 0.056720 2.048850 -0.042750
				CHANNELS 3 Zrotation Yrotation Xrotation
				JOINT Neck
				{
					OFFSET 0.000000 0.000000 0.000000
					CHANNELS 3 Zrotation Yrotation Xrotation
					JOINT Neck1
					{
						OFFSET -0.054170 1.746240 0.172020
						CHANNELS 3 Zrotation Yrotation Xrotation
						JOINT Head
						{
							OFFSET 0.104070 1.761360 -0.123970
							CHANNELS 3 Zrotation Yrotation Xrotation
							End Site
							{
								OFFSET 0.000000 0.000000 0.000000
							}
						}
					}
				}
				JOINT LeftShoulder
				{
					OFFSET 0.000000 0.000000 0.000000
					CHANNELS 3 Zrotation Yrotation Xrotation
					JOINT LeftArm
					{
						OFFSET 3.362410 1.200890 -0.311210
						CHANNELS 3 Zrotation Yrotation Xrotation
						JOINT LeftForeArm
						{
							OFFSET 4.983000 -0.000000 -0.000000
							CHANNELS 3 Zrotation Yrotation Xrotation
							JOINT LeftHand
							{
								OFFSET 3.483560 -0.000000 -0.000000
								CHANNELS 3 Zrotation Yrotation Xrotation
								JOINT LeftFingerBase
								{
									OFFSET 0.000000 0.000000 0.000000
									CHANNELS 3 Zrotation Yrotation Xrotation
									JOINT LeftHandIndex1
									{
										OFFSET 0.715260 -0.000000 -0.000000
										CHANNELS 3 Zrotation Yrotation Xrotation
										End Site
										{
											OFFSET 0.000000 0.000000 0.000000
										}
									}
								}
								JOINT LThumb
								{
									OFFSET 0.000000 0.000000 0.000000
									CHANNELS 3 Zrotation Yrotation Xrotation
									End Site
									{
										OFFSET 0.000000 0.000000 0.000000
									}
								}
							}
						}
					}
				}
				JOINT RightShoulder
				{
					OFFSET 0.000000 0.000000 0.000000
					CHANNELS 3 Zrotation Yrotation Xrotation
					JOINT RightArm
					{
						OFFSET -3.136600 1.374050 -0.404650
						CHANNELS 3 Zrotation Yrotation Xrotation
						JOINT RightForeArm
						{
							OFFSET -5.241900 -0.000000 -0.000000
							CHANNELS 3 Zrotation Yrotation Xrotation
							JOINT RightHand
							{
								OFFSET -3.444170 -0.000000 -0.000000
								CHANNELS 3 Zrotation Yrotation Xrotation
								JOINT RightFingerBase
								{
									OFFSET 0.000000 0.000000 0.000000
									CHANNELS 3 Zrotation Yrotation Xrotation
									JOINT RightHandIndex1
									{
										OFFSET -0.622530 -0.000000 -0.000000
										CHANNELS 3 Zrotation Yrotation Xrotation
										End Site
										{
											OFFSET 0.000000 0.000000 0.000000
										}
									}
								}
								JOINT RThumb
								{
									OFFSET 0.000000 0.000000 0.000000
									CHANNELS 3 Zrotation Yrotation Xrotation
									End Site
									{
										OFFSET 0.000000 0.000000 0.000000
									}
								}
							}
						}
					}
				}
			}
		}
	}
}
}
MOTION
Frames: 15
Frame Time: 0.008333
10.670071 20.920756 0.931391 37.272831 -88.420479 -15.427054 -0.480082 -1.195668 -5.873664 -0.503084 -1.246899 -4.921627 -4.336317 -1.171217 -5.363100 3.565138 -3.339871 3.878974 -2.169766 -0.323292 3.216048 0.000000 0.000000 0.000000 10.582559 -1.652737 -4.755554 -54.799342 -60.722776 -17.531224 176.373872 -63.969043 179.687169 17.934144 -6.086063 -1.140064 -0.134781 1.070729 -0.000000 0.000000 0.000000 0.000000 0.000000 0.000000 0.000000 -0.717811 -4.446019 -4.927787 44.251712 62.944496 -26.784239 -177.532656 79.743400 179.651565 -24.890854 10.152809 -2.468547 0.167137 -0.911831 -0.000000 0.000000 0.000000 0.000000 0.000000 0.000000 0.000000 
10.529159 20.995828 0.919875 37.418036 -88.457752 -15.278506 -0.484765 -1.183626 -5.850030 -0.511767 -1.234747 -4.905784 -4.348932 -1.158358 -5.298926 3.612343 -3.284819 3.956016 -2.188586 -0.324968 3.232011 0.000000 0.000000 0.000000 10.639478 -1.567938 -4.764158 -54.423553 -60.653950 -18.297465 176.270983 -62.595739 179.679491 18.388122 -6.417005 -1.226606 -0.157367 1.080809 -0.000000 0.000000 0.000000 0.000000 0.000000 0.000000 0.000000 -0.671214 -4.581399 -4.951190 43.485056 62.683611 -27.660368 -177.371178 78.358027 179.648951 -25.246824 10.198002 -2.516462 0.181183 -0.912428 -0.000000 0.000000 0.000000 0.000000 0.000000 0.000000 0.000000 
10.388800 21.058978 0.908337 37.598052 -88.515850 -15.172563 -0.489956 -1.172220 -5.835382 -0.518874 -1.223291 -4.891688 -4.357742 -1.146719 -5.233749 3.665378 -3.209750 4.040752 -2.203683 -0.326520 3.250278 0.000000 0.000000 0.000000 10.695712 -1.494922 -4.768693 -54.187626 -60.561044 -18.863590 176.191161 -61.392285 179.672641 18.806384 -6.728234 -1.310144 -0.178738 1.090135 -0.000000 0.000000 0.000000 0.000000 0.000000 0.000000 0.000000 -0.629006 -4.681397 -4.966481 42.843225 62.413459 -28.346794 -177.231009 77.089734 179.646222 -25.602123 10.302280 -2.578472 0.195086 -0.914015 -0.000000 0.000000 0.000000 0.000000 0.000000 0.000000 0.000000 
10.248521 21.110168 0.896815 37.827926 -88.589783 -15.123315 -0.496309 -1.163179 -5.830225 -0.524770 -1.214220 -4.878524 -4.364265 -1.137777 -5.164449 3.723241 -3.125015 4.131681 -2.215971 -0.327986 3.270456 0.000000 0.000000 0.000000 10.748326 -1.426336 -4.770347 -54.075857 -60.453272 -19.230704 176.132936 -60.353018 179.666847 19.170803 -7.008287 -1.386576 -0.198186 1.098525 -0.000000 0.000000 0.000000 0.000000 0.000000 0.000000 0.000000 -0.590761 -4.757055 -4.976115 42.335668 62.148022 -28.837936 -177.110703 75.936910 179.643594 -25.936936 10.443575 -2.648079 0.208350 -0.916323 -0.000000 0.000000 0.000000 0.000000 0.000000 0.000000 0.000000 
10.108200 21.149217 0.885271 38.155224 -88.673537 -15.178499 -0.505171 -1.158125 -5.834401 -0.530058 -1.209067 -4.865487 -4.370343 -1.132877 -5.088610 3.784954 -3.041167 4.227413 -2.226642 -0.329423 3.292160 0.000000 0.000000 0.000000 10.794513 -1.358341 -4.770248 -54.064513 -60.338341 -19.410184 176.095088 -59.471534 179.662296 19.465432 -7.249337 -1.452701 -0.215113 1.105867 -0.000000 0.000000 0.000000 0.000000 0.000000 0.000000 0.000000 -0.554201 -4.820110 -4.982284 41.966614 61.902551 -29.133950 -177.008851 74.899080 179.641305 -26.231071 10.598266 -2.717381 0.220484 -0.919012 -0.000000 0.000000 0.000000 0.000000 0.000000 0.000000 0.000000 
9.967736 21.176427 0.873681 38.576928 -88.760938 -15.335398 -0.517120 -1.158231 -5.845828 -0.535383 -1.208944 -4.851579 -4.378213 -1.132938 -5.004277 3.850133 -2.967680 4.326610 -2.237328 -0.330906 3.314988 0.000000 0.000000 0.000000 10.831917 -1.289985 -4.769073 -54.127900 -60.221714 -19.420126 176.076690 -58.734739 179.659140 19.676526 -7.444738 -1.505220 -0.229118 1.112059 -0.000000 0.000000 0.000000 0.000000 0.000000 0.000000 0.000000 -0.514325 -4.882001 -4.986447 41.735965 61.690958 -29.239683 -176.923807 73.971953 179.639559 -26.466644 10.743659 -2.778980 0.231070 -0.921720 -0.000000 0.000000 0.000000 0.000000 0.000000 0.000000 0.000000 
9.826956 21.191745 0.861965 39.130216 -88.846591 -15.627428 -0.533290 -1.164221 -5.864175 -0.541504 -1.214524 -4.836265 -4.390016 -1.138496 -4.909956 3.918540 -2.911459 4.428538 -2.249596 -0.332510 3.338676 0.000000 0.000000 0.000000 10.857410 -1.223332 -4.766872 -54.238984 -60.107422 -19.282856 176.077236 -58.126098 179.657461 19.795561 -7.593918 -1.542629 -0.240044 1.117143 -0.000000 0.000000 0.000000 0.000000 0.000000 0.000000 0.000000 -0.465687 -4.952244 -4.989422 41.639491 61.524533 -29.164103 -176.853430 73.145014 179.638494 -26.631884 10.860522 -2.826473 0.239869 -0.924123 -0.000000 0.000000 0.000000 0.000000 0.000000 0.000000 0.000000 
9.686054 21.195662 0.850076 39.859439 -88.926815 -16.097039 -0.553974 -1.175948 -5.889624 -0.548903 -1.225672 -4.819471 -4.407220 -1.149316 -4.805651 3.989389 -2.876022 4.532312 -2.264645 -0.334289 3.362926 0.000000 0.000000 0.000000 10.868817 -1.161933 -4.763373 -54.374727 -59.996663 -19.023839 176.095974 -57.627446 179.657249 19.820283 -7.700236 -1.564829 -0.247946 1.121246 -0.000000 0.000000 0.000000 0.000000 0.000000 0.000000 0.000000 -0.404305 -5.036115 -4.991468 41.669389 61.408760 -28.921496 -176.795805 72.408907 179.638166 -26.722730 10.934783 -2.855465 0.246802 -0.925953 -0.000000 0.000000 0.000000 0.000000 0.000000 0.000000 0.000000 
9.545099 21.188004 0.837984 40.745846 -88.998976 -16.725242 -0.579118 -1.193153 -5.918308 -0.557899 -1.242056 -4.800795 -4.430647 -1.164989 -4.692882 4.062282 -2.861663 4.637346 -2.283192 -0.336269 3.387511 0.000000 0.000000 0.000000 10.865208 -1.111957 -4.757800 -54.516448 -59.888280 -18.668859 176.132105 -57.222037 179.658430 19.753762 -7.770989 -1.573022 -0.253029 1.124573 -0.000000 0.000000 0.000000 0.000000 0.000000 0.000000 0.000000 -0.327028 -5.135076 -4.992027 41.813718 61.344083 -28.529422 -176.748924 71.750838 179.638541 -26.744751 10.958616 -2.864453 0.252026 -0.927028 -0.000000 0.000000 0.000000 0.000000 0.000000 0.000000 0.000000 
9.404306 21.169124 0.825693 41.766715 -89.062749 -17.489258 -0.607356 -1.214791 -5.947693 -0.568361 -1.262673 -4.780304 -4.460224 -1.184474 -4.574010 4.136063 -2.865445 4.743071 -2.305386 -0.338445 3.412219 0.000000 0.000000 0.000000 10.845776 -1.078503 -4.749217 -54.652730 -59.779771 -18.241783 176.184160 -56.890597 179.660821 19.606425 -7.817003 -1.570106 -0.255713 1.127419 -0.000000 0.000000 0.000000 0.000000 0.000000 0.000000 0.000000 -0.233632 -5.246751 -4.990420 42.058566 61.325040 -28.008848 -176.710809 71.157621 179.639497 -26.711510 10.932680 -2.854940 0.255861 -0.927306 -0.000000 0.000000 0.000000 0.000000 0.000000 0.000000 0.000000 
9.263942 21.138960 0.813212 42.918527 -89.117593 -18.394529 -0.639209 -1.240097 -5.967377 -0.580388 -1.286452 -4.756937 -4.495127 -1.206690 -4.453144 4.210378 -2.883399 4.849018 -2.330930 -0.340787 3.436846 0.000000 0.000000 0.000000 10.812260 -1.067324 -4.737110 -54.778961 -59.666893 -17.762761 176.249746 -56.619399 179.664115 19.396160 -7.855377 -1.560384 -0.256534 1.130219 -0.000000 0.000000 0.000000 0.000000 0.000000 0.000000 0.000000 -0.123970 -5.366816 -4.985736 42.386352 61.344614 -27.381969 -176.679603 70.615829 179.640830 -26.643773 10.865629 -2.831427 0.258782 -0.926877 -0.000000 0.000000 0.000000 0.000000 0.000000 0.000000 0.000000 
9.123997 21.097610 0.800848 43.940785 -89.173040 -19.166926 -0.664058 -1.265989 -5.988859 -0.591412 -1.311399 -4.733807 -4.533228 -1.229692 -4.332981 4.279979 -2.904957 4.954855 -2.357926 -0.343196 3.461410 0.000000 0.000000 0.000000 10.761147 -1.078750 -4.719315 -54.895004 -59.544700 -17.250097 176.327636 -56.395294 179.668138 19.136481 -7.887707 -1.545357 -0.255955 1.133001 -0.000000 0.000000 0.000000 0.000000 0.000000 0.000000 0.000000 -0.011742 -5.482646 -4.977817 42.789530 61.383854 -26.667401 -176.653007 70.111728 179.642316 -26.560244 10.771539 -2.799615 0.261205 -0.926015 -0.000000 0.000000 0.000000 0.000000 0.000000 0.000000 0.000000 
8.984903 21.044831 0.788563 44.895671 -89.228935 -19.893865 -0.684922 -1.292062 -5.989628 -0.601956 -1.336337 -4.707753 -4.573215 -1.252318 -4.219020 4.346535 -2.926919 5.059932 -2.385944 -0.345627 3.485613 0.000000 0.000000 0.000000 10.697365 -1.115445 -4.696708 -55.008480 -59.409587 -16.713730 176.413685 -56.210428 179.672409 18.855190 -7.936866 -1.531326 -0.254659 1.136339 -0.000000 0.000000 0.000000 0.000000 0.000000 0.000000 0.000000 0.105694 -5.589914 -4.965978 43.245377 61.436237 -25.887838 -176.630009 69.637037 179.643686 -26.485197 10.671171 -2.767405 0.263650 -0.925028 -0.000000 0.000000 0.000000 0.000000 0.000000 0.000000 0.000000 
8.846678 20.980666 0.776569 45.612997 -89.293765 -20.406442 -0.695040 -1.316018 -5.969187 -0.610268 -1.359508 -4.679588 -4.613065 -1.272875 -4.114422 4.407370 -2.941962 5.163675 -2.413388 -0.347990 3.509354 0.000000 0.000000 0.000000 10.620640 -1.174603 -4.668763 -55.128083 -59.258161 -16.162094 176.505420 -56.059842 179.676656 18.570972 -8.006912 -1.520293 -0.253130 1.140298 -0.000000 0.000000 0.000000 0.000000 0.000000 0.000000 0.000000 0.219402 -5.678996 -4.950434 43.743033 61.487932 -25.059501 -176.609386 69.184956 179.644733 -26.434115 10.585568 -2.741501 0.266438 -0.924324 -0.000000 0.000000 0.000000 0.000000 0.000000 0.000000 0.000000 
8.709139 20.904831 0.765000 46.001604 -89.373620 -20.617462 -0.690732 -1.336339 -5.923640 -0.615308 -1.379626 -4.649177 -4.651206 -1.290148 -4.021375 4.461413 -2.945602 5.265354 -2.439111 -0.350212 3.532454 0.000000 0.000000 0.000000 10.532275 -1.251248 -4.635722 -55.263158 -59.089106 -15.599594 176.600212 -55.942824 179.680622 18.301967 -8.100750 -1.514360 -0.251794 1.144898 -0.000000 0.000000 0.000000 0.000000 0.000000 0.000000 0.000000 0.324234 -5.743756 -4.931633 44.272443 61.530192 -24.194808 -176.590428 68.750582 179.645305 -26.416225 10.534578 -2.727603 0.269760 -0.924297 -0.000000 0.000000 0.000000 0.000000 0.000000 0.000000 0.000000 
